<?xml version="1.0" encoding="UTF-8" standalone="no"?>
<!DOCTYPE svg PUBLIC "-//W3C//DTD SVG 1.1//EN" "http://www.w3.org/Graphics/SVG/1.1/DTD/svg11.dtd">
<!-- Created with Vectornator (http://vectornator.io/) -->
<svg height="100%" stroke-miterlimit="10" style="fill-rule:nonzero;clip-rule:evenodd;stroke-linecap:round;stroke-linejoin:round;" version="1.1" viewBox="0 0 3175.2 793.8" width="100%" xml:space="preserve" xmlns="http://www.w3.org/2000/svg" xmlns:xlink="http://www.w3.org/1999/xlink">
<defs/>
<g id="layer1">
<path d="M312.684 56.7L594.516 56.7L793.8 255.984L793.8 537.816L594.516 737.1L312.684 737.1L113.4 537.816L113.4 255.984L312.684 56.7Z" fill="#000000" fill-rule="evenodd" opacity="1" stroke="none"/>
<path d="M593.731 58.5945L791.905 256.769L791.905 537.031L593.731 735.205L313.469 735.205L115.295 537.031L115.295 256.769L313.469 58.5945L593.731 58.5945" fill="#ffffff" fill-rule="evenodd" opacity="1" stroke="none"/>
<path d="M327.669 92.8761L579.531 92.8761L757.624 270.969L757.624 522.831L579.531 700.924L327.669 700.924L149.576 522.831L149.576 270.969L327.669 92.8761Z" fill="#ff3219" fill-rule="evenodd" opacity="1" stroke="none"/>
<g fill="#ff3219" opacity="1" stroke="none">
<path d="M1081.3 413.242C1081.3 398.906 1081.82 390.97 1083.1 381.498C1072.09 382.266 1064.66 382.522 1052.89 382.522L1039.58 382.522C1023.7 382.522 1018.07 382.266 1008.86 380.986L1008.86 414.01C1016.54 412.73 1021.91 412.474 1034.97 412.474L1048.79 412.474L1048.79 454.202C1035.74 462.394 1022.68 465.722 1005.27 465.722C985.047 465.722 971.223 460.346 960.727 448.058C949.207 434.49 943.319 414.522 943.319 388.154C943.319 362.042 949.463 343.098 962.263 329.786C971.991 319.802 986.071 314.17 1001.18 314.17C1027.54 314.17 1039.83 322.362 1048.28 345.658L1083.35 336.186C1077.98 321.85 1073.37 314.426 1064.41 305.722C1050.07 291.642 1028.82 283.706 1005.53 283.706C981.975 283.706 964.567 288.314 948.695 298.81C922.071 316.73 907.735 347.962 907.735 388.666C907.735 420.41 916.183 448.058 931.799 466.49C947.927 485.946 972.503 495.93 1004.5 495.93C1017.05 495.93 1030.62 494.138 1042.14 491.066C1055.7 487.482 1064.92 483.386 1083.1 473.402C1081.56 462.138 1081.3 455.226 1081.3 440.122L1081.3 413.242Z"/>
<path d="M1252.06 427.578C1251.54 421.69 1251.54 420.922 1251.54 420.41C1250.78 403.002 1248.98 393.786 1244.12 381.498C1233.88 355.898 1210.33 341.05 1180.38 341.05C1136.6 341.05 1108.18 372.026 1108.18 419.386C1108.18 467.258 1136.86 497.466 1182.17 497.466C1203.67 497.466 1221.59 490.81 1234.9 477.754C1241.3 471.354 1244.63 466.49 1250.52 454.202L1220.31 444.474C1217.75 451.386 1215.96 454.202 1212.89 457.786C1205.46 465.978 1194.71 470.586 1182.17 470.586C1169.11 470.586 1157.59 465.466 1150.17 456.25C1144.28 448.826 1141.98 441.658 1140.7 427.578L1252.06 427.578ZM1141.46 402.234C1145.3 380.73 1159.9 367.418 1179.86 367.418C1191.9 367.418 1200.6 370.746 1207.51 377.658C1213.91 384.058 1216.98 390.97 1218.78 402.234L1141.46 402.234Z"/>
<path d="M1314.26 492.602C1312.73 481.594 1312.22 471.866 1312.22 459.322L1312.22 407.61C1323.48 382.266 1338.58 369.466 1357.02 369.466C1366.74 369.466 1374.42 373.306 1378.52 379.962C1381.59 384.826 1382.87 391.738 1382.87 402.49L1382.87 459.322C1382.87 472.378 1382.36 481.082 1381.08 492.602L1418.2 492.602C1416.66 483.13 1416.15 473.402 1416.15 459.322L1416.15 397.882C1416.15 380.73 1413.59 370.49 1407.45 362.042C1398.23 349.498 1383.64 343.098 1363.93 343.098C1340.89 343.098 1327.32 350.266 1311.7 370.234C1312.22 363.834 1312.22 363.066 1312.22 359.226L1312.22 345.658L1277.4 345.658C1278.94 356.154 1279.45 364.858 1279.45 378.938L1279.45 459.322C1279.45 473.658 1278.94 481.594 1277.4 492.602L1314.26 492.602Z"/>
<path d="M1587.42 427.578C1586.9 421.69 1586.9 420.922 1586.9 420.41C1586.14 403.002 1584.34 393.786 1579.48 381.498C1569.24 355.898 1545.69 341.05 1515.74 341.05C1471.96 341.05 1443.54 372.026 1443.54 419.386C1443.54 467.258 1472.22 497.466 1517.53 497.466C1539.03 497.466 1556.95 490.81 1570.26 477.754C1576.66 471.354 1579.99 466.49 1585.88 454.202L1555.67 444.474C1553.11 451.386 1551.32 454.202 1548.25 457.786C1540.82 465.978 1530.07 470.586 1517.53 470.586C1504.47 470.586 1492.95 465.466 1485.53 456.25C1479.64 448.826 1477.34 441.658 1476.06 427.578L1587.42 427.578ZM1476.82 402.234C1480.66 380.73 1495.26 367.418 1515.22 367.418C1527.26 367.418 1535.96 370.746 1542.87 377.658C1549.27 384.058 1552.34 390.97 1554.14 402.234L1476.82 402.234Z"/>
<path d="M1720.02 345.658C1708.5 343.61 1702.36 342.842 1696.22 342.842C1673.18 342.842 1657.3 351.546 1648.09 369.722L1648.09 345.658L1613.27 345.658C1614.81 356.154 1615.06 363.322 1615.06 378.938L1615.06 459.322C1615.06 472.634 1614.55 480.058 1613.27 492.602L1649.88 492.602C1648.6 480.57 1648.09 473.146 1648.09 459.322L1648.09 411.962C1649.62 399.674 1652.18 393.786 1658.58 386.362C1665.75 377.914 1675.48 373.818 1688.28 373.818C1694.94 373.818 1700.31 374.842 1711.06 377.914L1720.02 345.658Z"/>
<path d="M1835.99 492.602L1870.55 492.602C1869.02 481.082 1868.5 474.17 1868.5 460.602L1868.5 391.738C1868.5 374.33 1865.18 364.602 1856.47 356.41C1845.46 345.658 1830.62 341.306 1806.04 341.306C1784.02 341.306 1769.69 345.146 1757.14 354.362C1747.42 361.274 1742.81 367.93 1736.92 382.778L1769.69 388.666C1772.76 379.45 1775.06 375.866 1779.93 372.282C1785.82 367.674 1796.31 364.858 1806.55 364.858C1826.01 364.858 1835.99 372.538 1835.99 387.386L1835.99 400.442C1799.38 401.21 1780.44 403.77 1763.8 410.682C1746.14 418.106 1734.87 434.234 1734.87 452.154C1734.87 479.034 1753.82 495.162 1785.05 495.162C1793.24 495.162 1801.43 494.138 1808.86 492.09C1819.35 489.274 1825.75 485.69 1835.99 475.962L1835.99 492.602ZM1835.99 435.514C1835.99 444.474 1832.92 451.898 1826.78 458.042C1818.07 466.49 1804.76 471.61 1791.19 471.61C1776.86 471.61 1767.9 464.186 1767.9 452.154C1767.9 432.186 1787.1 423.738 1835.99 422.714L1835.99 435.514Z"/>
<path d="M1901.02 288.826C1902.3 298.554 1902.81 306.746 1902.81 322.106L1902.81 459.322C1902.81 474.17 1902.3 481.594 1901.02 492.602L1938.14 492.602C1936.86 481.338 1936.34 472.89 1936.34 459.322L1936.34 322.362C1936.34 307.002 1936.86 298.81 1938.14 288.826L1901.02 288.826Z"/>
<path d="M2051.29 432.954C2052.82 443.45 2053.85 448.314 2056.15 454.202C2061.02 466.746 2068.44 476.474 2078.68 483.386C2090.97 491.578 2111.45 496.698 2132.44 496.698C2159.83 496.698 2180.06 490.298 2193.62 477.242C2204.12 466.746 2209.75 451.898 2209.75 433.722C2209.75 414.522 2203.1 400.442 2188.5 389.69C2179.29 383.29 2167 378.426 2146.78 374.074C2118.36 367.674 2116.31 367.162 2110.68 364.858C2098.9 359.738 2093.27 352.314 2093.27 341.562C2093.27 324.922 2108.38 313.658 2130.65 313.658C2144.73 313.658 2155.99 318.01 2162.65 325.946C2167 331.066 2168.79 335.418 2170.33 344.122L2206.94 339.77C2203.86 326.202 2200.79 318.522 2194.39 310.074C2181.85 293.178 2159.83 284.218 2130.65 284.218C2086.62 284.218 2057.94 307.258 2057.94 342.842C2057.94 359.994 2064.6 374.074 2077.66 384.314C2086.87 391.482 2097.11 395.578 2116.31 399.93C2151.64 408.122 2153.18 408.378 2160.86 412.474C2168.79 416.826 2173.66 425.53 2173.66 436.026C2173.66 455.226 2158.3 466.746 2132.7 466.746C2116.06 466.746 2102.74 461.37 2095.32 451.642C2090.71 445.754 2089.18 440.634 2088.15 429.114L2051.29 432.954Z"/>
<path d="M2335.96 492.602L2370.52 492.602C2368.98 481.082 2368.47 474.17 2368.47 460.602L2368.47 391.738C2368.47 374.33 2365.14 364.602 2356.44 356.41C2345.43 345.658 2330.58 341.306 2306.01 341.306C2283.99 341.306 2269.66 345.146 2257.11 354.362C2247.38 361.274 2242.78 367.93 2236.89 382.778L2269.66 388.666C2272.73 379.45 2275.03 375.866 2279.9 372.282C2285.78 367.674 2296.28 364.858 2306.52 364.858C2325.98 364.858 2335.96 372.538 2335.96 387.386L2335.96 400.442C2299.35 401.21 2280.41 403.77 2263.77 410.682C2246.1 418.106 2234.84 434.234 2234.84 452.154C2234.84 479.034 2253.78 495.162 2285.02 495.162C2293.21 495.162 2301.4 494.138 2308.82 492.09C2319.32 489.274 2325.72 485.69 2335.96 475.962L2335.96 492.602ZM2335.96 435.514C2335.96 444.474 2332.89 451.898 2326.74 458.042C2318.04 466.49 2304.73 471.61 2291.16 471.61C2276.82 471.61 2267.86 464.186 2267.86 452.154C2267.86 432.186 2287.06 423.738 2335.96 422.714L2335.96 435.514Z"/>
<path d="M2422.23 372.538L2422.23 459.322C2422.23 472.634 2421.72 480.57 2420.44 492.602L2457.05 492.602C2455.77 481.338 2455.26 473.914 2455.26 459.322L2455.26 372.538L2467.8 372.538C2480.34 372.538 2487.26 373.05 2496.22 374.074L2496.22 344.122C2485.46 345.146 2477.53 345.658 2467.29 345.658L2455.26 345.658L2455.26 335.162C2455.26 317.498 2460.38 311.354 2475.22 311.354C2483.93 311.354 2490.33 313.146 2498.01 317.498L2504.92 290.618C2493.14 286.778 2484.7 285.498 2473.18 285.498C2438.36 285.498 2422.23 300.346 2422.23 332.09L2422.23 345.658L2411.74 345.658C2402.52 345.658 2394.84 345.146 2387.67 344.122L2387.67 374.074C2395.61 373.05 2402.26 372.538 2411.99 372.538L2422.23 372.538Z"/>
<path d="M2660.82 427.578C2660.31 421.69 2660.31 420.922 2660.31 420.41C2659.54 403.002 2657.75 393.786 2652.89 381.498C2642.65 355.898 2619.1 341.05 2589.14 341.05C2545.37 341.05 2516.95 372.026 2516.95 419.386C2516.95 467.258 2545.62 497.466 2590.94 497.466C2612.44 497.466 2630.36 490.81 2643.67 477.754C2650.07 471.354 2653.4 466.49 2659.29 454.202L2629.08 444.474C2626.52 451.386 2624.73 454.202 2621.66 457.786C2614.23 465.978 2603.48 470.586 2590.94 470.586C2577.88 470.586 2566.36 465.466 2558.94 456.25C2553.05 448.826 2550.74 441.658 2549.46 427.578L2660.82 427.578ZM2550.23 402.234C2554.07 380.73 2568.66 367.418 2588.63 367.418C2600.66 367.418 2609.37 370.746 2616.28 377.658C2622.68 384.058 2625.75 390.97 2627.54 402.234L2550.23 402.234Z"/>
<path d="M2703.32 306.234C2704.34 315.45 2705.11 326.714 2705.11 337.722L2705.11 345.658L2695.64 345.658C2684.89 345.658 2680.02 345.402 2672.6 344.122L2672.6 374.33C2681.05 373.05 2685.91 372.794 2695.38 372.794L2705.11 372.794L2705.11 458.81C2705.11 485.69 2716.89 496.186 2746.33 496.186C2759.64 496.186 2767.32 494.906 2778.33 490.81L2773.72 463.674C2765.78 468.026 2761.69 469.306 2755.03 469.306C2742.74 469.306 2738.14 464.698 2738.14 452.154L2738.14 372.794L2749.66 372.794C2761.43 372.794 2766.3 373.05 2774.74 374.33L2774.74 344.122C2766.55 345.402 2760.92 345.658 2748.89 345.658L2738.14 345.658L2738.14 337.722C2738.14 326.202 2738.9 315.194 2739.93 306.234L2703.32 306.234Z"/>
<path d="M2846.17 482.362L2837.46 502.074C2833.88 510.01 2826.46 514.874 2817.5 514.874C2811.61 514.874 2806.74 513.594 2799.58 510.522L2793.69 539.706C2805.46 542.01 2812.89 542.778 2820.57 542.778C2844.38 542.778 2859.48 533.818 2867.67 514.362L2926.04 377.402C2933.72 359.482 2938.33 348.986 2939.86 345.658L2901.72 345.658C2900.18 353.85 2898.14 360.25 2891.99 375.866L2863.58 448.314L2832.34 375.61C2827.74 365.114 2823.9 353.082 2822.62 345.658L2783.7 345.658C2786.78 351.29 2787.03 352.058 2798.3 377.402L2846.17 482.362Z"/>
</g>
</g>
</svg>
