<?xml version="1.0" encoding="UTF-8" standalone="no"?>
<!DOCTYPE svg PUBLIC "-//W3C//DTD SVG 1.1//EN" "http://www.w3.org/Graphics/SVG/1.1/DTD/svg11.dtd">
<!-- Created with Vectornator (http://vectornator.io/) -->
<svg height="100%" stroke-miterlimit="10" style="fill-rule:nonzero;clip-rule:evenodd;stroke-linecap:round;stroke-linejoin:round;" version="1.1" viewBox="0 0 2000 800" width="100%" xml:space="preserve" xmlns="http://www.w3.org/2000/svg" xmlns:vectornator="http://vectornator.io" xmlns:xlink="http://www.w3.org/1999/xlink">
<defs/>
<g id="layer1" vectornator:layerName="layer1">
<path d="M284.645 59.8L566.477 59.8L765.761 259.084L765.761 540.916L566.477 740.2L284.645 740.2L85.361 540.916L85.361 259.084L284.645 59.8Z" fill="#000000" fill-rule="evenodd" opacity="1" stroke="none" vectornator:layerName="path"/>
<path d="M565.692 61.6945L763.866 259.869L763.866 540.131L565.692 738.305L285.43 738.305L87.256 540.131L87.256 259.869L285.43 61.6945L565.692 61.6945" fill="#ffffff" fill-rule="evenodd" opacity="1" stroke="none" vectornator:layerName="path"/>
<path d="M299.63 95.9761L551.492 95.9761L729.585 274.069L729.585 525.931L551.492 704.024L299.63 704.024L121.537 525.931L121.537 274.069L299.63 95.9761Z" fill="#ff3219" fill-rule="evenodd" opacity="1" stroke="none" vectornator:layerName="path"/>
<g fill="#ff3219" opacity="1" stroke="none" vectornator:layerName="Text 1">
<path d="M1068.27 544.438L1008.12 544.438L890.539 339.945L890.539 544.438L834.484 544.438L834.484 256.547L897.57 256.547L1012.22 457.524L1012.22 256.547L1068.27 256.547L1068.27 544.438Z"/>
<path d="M1297.38 358.5C1315.34 381.026 1324.33 407.654 1324.33 438.383C1324.33 469.633 1315.34 496.358 1297.38 518.559C1279.41 540.759 1252.13 551.86 1215.54 551.86C1178.95 551.86 1151.67 540.759 1133.7 518.559C1115.73 496.358 1106.75 469.633 1106.75 438.383C1106.75 407.654 1115.73 381.026 1133.7 358.5C1151.67 335.974 1178.95 324.711 1215.54 324.711C1252.13 324.711 1279.41 335.974 1297.38 358.5ZM1215.34 371.781C1199.07 371.781 1186.54 377.543 1177.75 389.067C1168.96 400.59 1164.56 417.029 1164.56 438.383C1164.56 459.737 1168.96 476.208 1177.75 487.797C1186.54 499.386 1199.07 505.18 1215.34 505.18C1231.62 505.18 1244.12 499.386 1252.84 487.797C1261.57 476.208 1265.93 459.737 1265.93 438.383C1265.93 417.029 1261.57 400.59 1252.84 389.067C1244.12 377.543 1231.62 371.781 1215.34 371.781Z"/>
<path d="M1365.34 256.547L1421.01 256.547L1421.01 544.438L1365.34 544.438L1365.34 256.547Z"/>
<path d="M1561.83 488.578L1605.77 331.547L1664.95 331.547L1591.91 540.922C1577.84 581.287 1566.71 606.319 1558.51 616.02C1550.3 625.72 1533.9 630.57 1509.29 630.57C1504.34 630.57 1500.37 630.538 1497.38 630.473C1494.38 630.408 1489.89 630.18 1483.9 629.789L1483.9 585.258L1490.93 585.649C1496.4 585.909 1501.61 585.714 1506.55 585.063C1511.5 584.412 1515.67 582.914 1519.05 580.57C1522.31 578.357 1525.34 573.735 1528.14 566.703C1530.94 559.672 1532.08 555.375 1531.55 553.813L1453.43 331.547L1515.34 331.547L1561.83 488.578Z"/>
<path d="M1797.96 372.758C1779.08 372.758 1766.13 380.766 1759.09 396.781C1755.45 405.245 1753.63 416.052 1753.63 429.203L1753.63 544.438L1698.16 544.438L1698.16 331.938L1751.87 331.938L1751.87 362.992C1759.03 352.055 1765.8 344.177 1772.18 339.359C1783.64 330.766 1798.16 326.469 1815.73 326.469C1837.74 326.469 1855.74 332.231 1869.74 343.754C1883.74 355.277 1890.73 374.386 1890.73 401.078L1890.73 544.438L1833.7 544.438L1833.7 414.945C1833.7 403.748 1832.21 395.154 1829.21 389.164C1823.74 378.227 1813.33 372.758 1797.96 372.758Z"/>
</g>
</g>
</svg>
