<?xml version="1.0" encoding="UTF-8" standalone="no"?>
<!DOCTYPE svg PUBLIC "-//W3C//DTD SVG 1.1//EN" "http://www.w3.org/Graphics/SVG/1.1/DTD/svg11.dtd">
<!-- Created with Vectornator (http://vectornator.io/) -->
<svg height="100%" stroke-miterlimit="10" style="fill-rule:nonzero;clip-rule:evenodd;stroke-linecap:round;stroke-linejoin:round;" version="1.1" viewBox="0 0 100 125" width="100%" xml:space="preserve" xmlns="http://www.w3.org/2000/svg" xmlns:xlink="http://www.w3.org/1999/xlink">
<defs/>
<clipPath id="ArtboardFrame">
<rect height="125" width="100" x="0" y="0"/>
</clipPath>
<g clip-path="url(#ArtboardFrame)" id="Untitled">
<g opacity="1">
<g opacity="1">
<path d="M5273.1 2400.1L5273.1 2398.1C5273.1 2395.3 5268.1 2394.1 5263.4 2394.1C5258.7 2394.1 5253.7 2395.4 5253.7 2398.1L5253.7 2400.1C5253.7 2401.9 5254.4 2403.7 5255.7 2405L5260.7 2409.9C5261 2410.2 5261.1 2410.5 5261.1 2410.9L5261.1 2417.3C5261.1 2417.7 5261.3 2418 5261.7 2418.1L5264.6 2419C5265.1 2419.1 5265.6 2418.8 5265.6 2418.2L5265.6 2411C5265.6 2410.6 5265.8 2410.3 5266 2410L5271.1 2405C5272.4 2403.7 5273.1 2401.9 5273.1 2400.1ZM5263.4 2400C5258.6 2400 5256 2398.7 5255.9 2398.2L5255.9 2398.2C5256 2397.7 5258.6 2396.4 5263.4 2396.4C5268.2 2396.4 5270.7 2397.7 5270.9 2398.2C5270.7 2398.7 5268.2 2400 5263.4 2400Z" fill="#ff7070" fill-rule="nonzero" opacity="1" stroke="none"/>
<path d="M5268.4 2410.3C5267.8 2410.3 5267.4 2410.7 5267.4 2411.3C5267.4 2411.9 5267.8 2412.3 5268.4 2412.3L5272.7 2412.3C5273.3 2412.3 5273.7 2411.9 5273.7 2411.3C5273.7 2410.7 5273.3 2410.3 5272.7 2410.3L5268.4 2410.3Z" fill="#ff7070" fill-rule="nonzero" opacity="1" stroke="none"/>
<path d="M5272.7 2413.7L5268.4 2413.7C5267.8 2413.7 5267.4 2414.1 5267.4 2414.7C5267.4 2415.3 5267.8 2415.7 5268.4 2415.7L5272.7 2415.7C5273.3 2415.7 5273.7 2415.3 5273.7 2414.7C5273.7 2414.1 5273.3 2413.7 5272.7 2413.7Z" fill="#ff7070" fill-rule="nonzero" opacity="1" stroke="none"/>
<path d="M5272.7 2417L5268.4 2417C5267.8 2417 5267.4 2417.4 5267.4 2418C5267.4 2418.6 5267.8 2419 5268.4 2419L5272.7 2419C5273.3 2419 5273.7 2418.6 5273.7 2418C5273.7 2417.5 5273.3 2417 5272.7 2417Z" fill="#ff7070" fill-rule="nonzero" opacity="1" stroke="none"/>
</g>
<g opacity="1">
<path d="M31.3 63.8L30.4 56.3C29.8 51.2 25.5 47.4 20.4 47.4L13.4 47.4C8.3 47.4 4 51.2 3.4 56.2L2.5 63.7C2.3 65.1 3.3 66.5 4.7 66.8C8.6 67.6 12.7 68 16.9 68C21.2 68 25.3 67.6 29.1 66.8C30.6 66.6 31.5 65.2 31.3 63.8Z" fill="#ff7070" fill-rule="nonzero" opacity="1" stroke="none"/>
<path d="M7.4 35.3C7.4 30.0533 11.6533 25.8 16.9 25.8C22.1467 25.8 26.4 30.0533 26.4 35.3C26.4 40.5467 22.1467 44.8 16.9 44.8C11.6533 44.8 7.4 40.5467 7.4 35.3Z" fill="#ff7070" fill-rule="nonzero" opacity="1" stroke="none"/>
<path d="M96.6 56.2C96 51.1 91.7 47.3 86.6 47.3L79.6 47.3C74.5 47.3 70.2 51.1 69.6 56.1L68.7 63.6C68.5 65 69.5 66.4 70.9 66.7C74.8 67.5 78.9 67.9 83.1 67.9C87.4 67.9 91.5 67.5 95.3 66.7C96.7 66.4 97.6 65.1 97.5 63.6L96.6 56.2Z" fill="#ff7070" fill-rule="nonzero" opacity="1" stroke="none"/>
<path d="M73.6 35.3C73.6 30.0533 77.8533 25.8 83.1 25.8C88.3467 25.8 92.6 30.0533 92.6 35.3C92.6 40.5467 88.3467 44.8 83.1 44.8C77.8533 44.8 73.6 40.5467 73.6 35.3Z" fill="#ff7070" fill-rule="nonzero" opacity="1" stroke="none"/>
<path d="M30.7 29.4C31.3 29.4 31.9 29.1 32.4 28.6C35.9 24.2 42.5 21.5 49.7 21.5C55 21.5 60 23 63.7 25.6L61.2 25.7C60 25.7 59.1 26.7 59.1 27.9C59.1 29.1 60.1 30 61.2 30C61.2 30 61.2 30 61.3 30L69 29.8C70.2 29.8 71.1 28.8 71.1 27.6L70.9 19.9C70.9 18.7 69.9 17.8 68.7 17.8C67.5 17.8 66.6 18.8 66.6 20L66.7 22.5C62.3 19.2 56.2 17.3 49.7 17.3C41.1 17.3 33.4 20.6 29.1 26C28.4 26.9 28.5 28.3 29.4 29C29.7 29.2 30.2 29.4 30.7 29.4Z" fill="#ff7070" fill-rule="nonzero" opacity="1" stroke="none"/>
<path d="M67.3 71.4C63.8 75.8 57.2 78.5 50 78.5C44.7 78.5 39.7 77 36 74.4L38.5 74.3C39.7 74.3 40.6 73.3 40.6 72.1C40.6 70.9 39.6 70 38.4 70L30.7 70.2C30.1 70.2 29.6 70.5 29.2 70.9C28.8 71.3 28.6 71.9 28.6 72.4L28.8 80.1C28.8 81.3 29.8 82.2 30.9 82.2C30.9 82.2 30.9 82.2 31 82.2C32.2 82.2 33.1 81.2 33.1 80L33 77.6C37.4 80.9 43.5 82.8 50 82.8C58.6 82.8 66.3 79.5 70.6 74.1C71.3 73.2 71.2 71.8 70.3 71.1C69.4 70.4 68 70.5 67.3 71.4Z" fill="#ff7070" fill-rule="nonzero" opacity="1" stroke="none"/>
<path d="M39.9 57.8L48.7 66.6C49.4 67.3 50.5 67.3 51.2 66.6L60.2 57.6C62.8 55 62.6 50.8 59.7 48.4C57.2 46.3 53.5 46.7 51.2 49L50 50.4L48.5 48.9C45.9 46.3 41.7 46.5 39.3 49.4C37.3 51.8 37.6 55.5 39.9 57.8Z" fill="#ff7070" fill-rule="nonzero" opacity="1" stroke="none"/>
<path d="M50 42.1C51.2 42.1 52.1 41.2 52.1 40L52.1 36C52.1 34.8 51.2 33.9 50 33.9C48.8 33.9 47.9 34.8 47.9 36L47.9 40C47.9 41.1 48.8 42.1 50 42.1Z" fill="#ff7070" fill-rule="nonzero" opacity="1" stroke="none"/>
<path d="M43 43.9C43.4 43.9 43.7 43.8 44 43.6C44.5 43.3 44.8 42.9 45 42.3C45.1 41.8 45.1 41.2 44.8 40.7L42.8 37.2C42.5 36.7 42.1 36.4 41.5 36.2C41 36.1 40.4 36.1 39.9 36.4C38.9 37 38.6 38.3 39.1 39.2L41.1 42.7C41.6 43.5 42.3 43.9 43 43.9Z" fill="#ff7070" fill-rule="nonzero" opacity="1" stroke="none"/>
<path d="M55.9 43.6C56.2 43.8 56.6 43.9 56.9 43.9C57.6 43.9 58.3 43.5 58.7 42.9L60.7 39.5C61.3 38.5 60.9 37.2 59.9 36.6C58.9 36 57.6 36.4 57 37.4L55 40.8C54.7 41.3 54.6 41.8 54.8 42.4C55.1 42.9 55.4 43.4 55.9 43.6Z" fill="#ff7070" fill-rule="nonzero" opacity="1" stroke="none"/>
</g>
</g>
</g>
</svg>
