<?xml version="1.0" encoding="UTF-8" standalone="no"?>
<!DOCTYPE svg PUBLIC "-//W3C//DTD SVG 1.1//EN" "http://www.w3.org/Graphics/SVG/1.1/DTD/svg11.dtd">
<!-- Created with Vectornator (http://vectornator.io/) -->
<svg height="100%" stroke-miterlimit="10" style="fill-rule:nonzero;clip-rule:evenodd;stroke-linecap:round;stroke-linejoin:round;" version="1.1" viewBox="0 0 100 100" width="100%" xml:space="preserve" xmlns="http://www.w3.org/2000/svg" xmlns:xlink="http://www.w3.org/1999/xlink">
<defs/>
<g id="Untitled">
<g opacity="1">
<path d="M6.09 28.64C6.64228 28.64 7.09 28.1923 7.09 27.64L7.09 7.13L27.42 7.13C27.9723 7.13 28.42 6.68228 28.42 6.13C28.42 5.57772 27.9723 5.13 27.42 5.13L6.09 5.13C5.53772 5.13 5.09 5.57772 5.09 6.13L5.09 27.64C5.09 28.1923 5.53772 28.64 6.09 28.64Z" fill="#f47f39" fill-rule="nonzero" opacity="1" stroke="none"/>
<path d="M93.91 5.13L72.58 5.13C72.0277 5.13 71.58 5.57772 71.58 6.13C71.58 6.68228 72.0277 7.13 72.58 7.13L92.91 7.13L92.91 27.64C92.91 28.1923 93.3577 28.64 93.91 28.64C94.4623 28.64 94.91 28.1923 94.91 27.64L94.91 6.13C94.91 5.57772 94.4623 5.13 93.91 5.13Z" fill="#f47f39" fill-rule="nonzero" opacity="1" stroke="none"/>
<path d="M27.42 93L7.09 93L7.09 72.43C7.09 71.8777 6.64228 71.43 6.09 71.43C5.53772 71.43 5.09 71.8777 5.09 72.43L5.09 94C5.09 94.5523 5.53772 95 6.09 95L27.42 95C27.9723 95 28.42 94.5523 28.42 94C28.42 93.4477 27.9723 93 27.42 93Z" fill="#f47f39" fill-rule="nonzero" opacity="1" stroke="none"/>
<path d="M93.91 71.43C93.3577 71.43 92.91 71.8777 92.91 72.43L92.91 93L72.58 93C72.0277 93 71.58 93.4477 71.58 94C71.58 94.5523 72.0277 95 72.58 95L93.91 95C94.4623 95 94.91 94.5523 94.91 94L94.91 72.43C94.91 71.8777 94.4623 71.43 93.91 71.43Z" fill="#f47f39" fill-rule="nonzero" opacity="1" stroke="none"/>
<path d="M94.38 61C94.6252 60.8112 94.7693 60.5195 94.77 60.21L94.77 39.89C94.7693 39.5805 94.6252 39.2888 94.38 39.1L50.65 5.33C50.2904 5.0532 49.7896 5.0532 49.43 5.33L5.52 39.1C5.27475 39.2888 5.13074 39.5805 5.13 39.89L5.13 60.18C5.13074 60.4895 5.27475 60.7812 5.52 60.97L34.52 83.3L34.52 94C34.52 94.5523 34.9677 95 35.52 95C36.0723 95 36.52 94.5523 36.52 94L36.52 82.81C36.5243 82.7902 36.5243 82.7698 36.52 82.75C36.5303 82.6837 36.5303 82.6163 36.52 82.55C36.5245 82.4901 36.5245 82.4299 36.52 82.37L36.41 82.22C36.3723 82.1623 36.3287 82.1087 36.28 82.06L36.28 82.06L7.28 59.73L7.28 40.38L50 7.38L92.73 40.38L92.73 59.69L63.73 82.12C63.6758 82.1624 63.6286 82.213 63.59 82.27L63.49 82.42C63.4655 82.4784 63.4455 82.5386 63.43 82.6C63.4197 82.6663 63.4197 82.7337 63.43 82.8C63.43 82.8 63.43 82.8 63.43 82.86L63.43 94C63.43 94.5523 63.8777 95 64.43 95C64.9823 95 65.43 94.5523 65.43 94L65.43 83.4L94.38 61Z" fill="#f47f39" fill-rule="nonzero" opacity="1" stroke="none"/>
<path d="M63.34 69.31C63.34 69.31 63.34 69.39 63.34 69.43C63.3353 69.4966 63.3353 69.5634 63.34 69.63C63.366 69.6919 63.396 69.7521 63.43 69.81C63.4439 69.8497 63.4642 69.8868 63.49 69.92L63.49 69.92C63.5583 69.9969 63.6395 70.0612 63.73 70.11L63.83 70.18C63.9594 70.2368 64.0987 70.2674 64.24 70.27L64.24 70.27C64.3599 70.2678 64.4785 70.2441 64.59 70.2L64.71 70.14C64.71 70.14 64.81 70.14 64.85 70.06L80.83 57.84C81.0752 57.6512 81.2193 57.3595 81.22 57.05L81.22 43C81.2193 42.6905 81.0752 42.3988 80.83 42.21L50.62 18.91C50.2604 18.6332 49.7596 18.6332 49.4 18.91L19.07 42.24C18.8248 42.4288 18.6807 42.7205 18.68 43.03L18.68 57.03C18.6807 57.3395 18.8248 57.6312 19.07 57.82L35 70.05C35 70.05 35.07 70.05 35.1 70.05L35.29 70.15L35.48 70.15C35.5232 70.1546 35.5668 70.1546 35.61 70.15L35.67 70.15L35.86 70.15C35.9251 70.136 35.9887 70.1159 36.05 70.09L36.19 69.99C36.2499 69.9514 36.3038 69.9042 36.35 69.85C36.35 69.85 36.35 69.85 36.4 69.85C36.45 69.85 36.4 69.78 36.4 69.74C36.4378 69.6843 36.4681 69.6237 36.49 69.56C36.504 69.4941 36.504 69.4259 36.49 69.36C36.4945 69.3201 36.4945 69.2799 36.49 69.24L36.49 60.21C38.4723 59.6354 39.7159 57.6739 39.39 55.6359C39.0641 53.5979 37.2709 52.122 35.2082 52.1942C33.1456 52.2664 31.4599 53.864 31.2773 55.9198C31.0947 57.9756 32.4724 59.8454 34.49 60.28L34.49 67.28L20.68 56.56L20.68 43.56L49 21.73L49 28.83C46.9873 29.3349 45.6666 31.2609 45.921 33.3203C46.1754 35.3797 47.9249 36.9265 50 36.9265C52.0751 36.9265 53.8246 35.3797 54.079 33.3203C54.3334 31.2609 53.0127 29.3349 51 28.83L51 21.73L79.22 43.52L79.22 56.52L65.34 67.27L65.34 60.27C67.3527 59.7651 68.6734 57.8391 68.419 55.7797C68.1646 53.7203 66.4151 52.1735 64.34 52.1735C62.2649 52.1735 60.5154 53.7203 60.261 55.7797C60.0066 57.8391 61.3273 59.7651 63.34 60.27L63.34 69.31ZM33.34 56.31C33.336 55.4516 33.8499 54.6755 34.6418 54.3443C35.4336 54.013 36.3471 54.1919 36.9555 54.7974C37.5639 55.4029 37.7471 56.3155 37.4196 57.109C37.092 57.9024 36.3184 58.42 35.46 58.42C34.8908 58.4227 34.3444 58.1965 33.9437 57.7921C33.5431 57.3877 33.3219 56.8392 33.33 56.27L33.34 56.31ZM52.11 32.8C52.11 33.9653 51.1653 34.91 50 34.91C48.8347 34.91 47.89 33.9653 47.89 32.8C47.89 31.6347 48.8347 30.69 50 30.69L50 30.69C51.1653 30.69 52.11 31.6347 52.11 32.8ZM62.23 56.27C62.23 55.1047 63.1747 54.16 64.34 54.16C65.5053 54.16 66.45 55.1047 66.45 56.27C66.45 57.4353 65.5053 58.38 64.34 58.38C63.1747 58.38 62.23 57.4353 62.23 56.27Z" fill="#f47f39" fill-rule="nonzero" opacity="1" stroke="none"/>
<path d="M38.86 44.22C39.3839 43.518 39.6679 42.6659 39.67 41.79C39.67 39.5201 37.8299 37.68 35.56 37.68C33.2901 37.68 31.45 39.5201 31.45 41.79C31.45 44.0599 33.2901 45.9 35.56 45.9C36.1624 45.8968 36.7566 45.7602 37.3 45.5L43.5 51.44L43.5 94C43.5 94.5523 43.9477 95 44.5 95C45.0523 95 45.5 94.5523 45.5 94L45.5 51C45.499 50.7278 45.387 50.4678 45.19 50.28L38.86 44.22ZM33.45 41.79C33.45 40.6247 34.3947 39.68 35.56 39.68C36.7253 39.68 37.67 40.6247 37.67 41.79C37.67 42.9553 36.7253 43.9 35.56 43.9C34.3947 43.9 33.45 42.9553 33.45 41.79Z" fill="#f47f39" fill-rule="nonzero" opacity="1" stroke="none"/>
<path d="M64.44 45.9C66.7099 45.9 68.55 44.0599 68.55 41.79C68.55 39.5201 66.7099 37.68 64.44 37.68C62.1701 37.68 60.33 39.5201 60.33 41.79C60.3292 42.668 60.6174 43.522 61.15 44.22L54.81 50.29C54.613 50.4778 54.501 50.7378 54.5 51.01L54.5 94C54.5 94.5523 54.9477 95 55.5 95C56.0523 95 56.5 94.5523 56.5 94L56.5 51.44L62.7 45.5C63.2434 45.7602 63.8376 45.8968 64.44 45.9ZM64.44 39.68C65.6053 39.68 66.55 40.6247 66.55 41.79C66.55 42.9553 65.6053 43.9 64.44 43.9C63.2747 43.9 62.33 42.9553 62.33 41.79C62.3355 40.627 63.277 39.6855 64.44 39.68Z" fill="#f47f39" fill-rule="nonzero" opacity="1" stroke="none"/>
</g>
</g>
</svg>
