<?xml version="1.0" encoding="UTF-8" standalone="no"?>
<!DOCTYPE svg PUBLIC "-//W3C//DTD SVG 1.1//EN" "http://www.w3.org/Graphics/SVG/1.1/DTD/svg11.dtd">
<!-- Created with Vectornator (http://vectornator.io/) -->
<svg height="100%" stroke-miterlimit="10" style="fill-rule:nonzero;clip-rule:evenodd;stroke-linecap:round;stroke-linejoin:round;" version="1.1" viewBox="0 0 100 100" width="100%" xml:space="preserve" xmlns="http://www.w3.org/2000/svg" xmlns:xlink="http://www.w3.org/1999/xlink">
<defs/>
<g id="Untitled">
<path d="M78.7045 57.9425L78.7045 64.4165L77.3795 63.0915C77.1067 62.8045 76.6996 62.6881 76.3163 62.7873C75.9329 62.8866 75.6336 63.1859 75.5343 63.5693C75.4351 63.9526 75.5515 64.3597 75.8385 64.6325L79.0235 67.8175C79.4495 68.243 80.1395 68.243 80.5655 67.8175L83.7505 64.6325C84.0375 64.3597 84.154 63.9526 84.0547 63.5693C83.9554 63.1859 83.6561 62.8866 83.2727 62.7873C82.8894 62.6881 82.4823 62.8045 82.2095 63.0915L80.8845 64.4165L80.8845 57.9425C80.879 54.33 77.951 51.4034 74.3385 51.3995L54.5005 51.3995C54.0921 49.7218 52.7835 48.4109 51.1065 47.9995L51.1065 43.8285L69.8065 43.8285C74.9874 43.8224 79.5005 40.2939 80.7563 35.2675C82.0121 30.241 79.6888 25.0045 75.1195 22.5625C75.0711 15.4724 69.3098 9.75035 62.2195 9.75051C60.3047 9.75149 58.4141 10.1781 56.6845 10.9995C52.0535 5.77819 44.7088 3.90485 38.1427 6.27021C31.5766 8.63557 27.1139 14.7624 26.8765 21.7375C21.5433 23.3948 18.2207 28.6995 19.0573 34.2213C19.8939 39.743 24.6387 43.8254 30.2235 43.8285L48.9235 43.8285L48.9235 47.9995C47.2476 48.4119 45.9405 49.7226 45.5325 51.3995L25.6935 51.3995C22.0804 51.4034 19.1524 54.3314 19.1485 57.9445L19.1485 64.0195L17.8235 62.6945C17.5507 62.4075 17.1436 62.2911 16.7603 62.3903C16.3769 62.4896 16.0776 62.7889 15.9783 63.1723C15.8791 63.5556 15.9955 63.9627 16.2825 64.2355L19.4685 67.4205C19.8941 67.8459 20.5839 67.8459 21.0095 67.4205L24.1945 64.2355C24.4815 63.9627 24.598 63.5556 24.4987 63.1723C24.3994 62.7889 24.1001 62.4896 23.7167 62.3903C23.3334 62.2911 22.9263 62.4075 22.6535 62.6945L21.3285 64.0195L21.3285 57.9425C21.3313 55.5329 23.2839 53.5803 25.6935 53.5775L45.5325 53.5775C46.0344 55.6468 47.8872 57.104 50.0165 57.104C52.1458 57.104 53.9986 55.6468 54.5005 53.5775L74.3385 53.5775C76.7485 53.5797 78.7017 55.5325 78.7045 57.9425ZM30.2235 41.6495C25.5816 41.6472 21.6818 38.1589 21.164 33.5459C20.6463 28.933 23.6756 24.6669 28.2015 23.6355C28.7027 23.5202 29.0555 23.0708 29.0485 22.5565C28.946 16.1895 32.9068 10.4631 38.9007 8.31286C44.8945 6.1626 51.5923 8.06527 55.5605 13.0455C55.8939 13.4645 56.4827 13.5786 56.9485 13.3145C60.3502 11.3934 64.5276 11.4747 67.8519 13.5267C71.1762 15.5788 73.1212 19.2766 72.9285 23.1785C72.907 23.6238 73.1589 24.0373 73.5645 24.2225C77.4792 25.9916 79.6281 30.2531 78.723 34.4526C77.8179 38.652 74.1044 41.6501 69.8085 41.6495L30.2235 41.6495ZM36.9605 93.6495C36.9605 94.2515 36.4725 94.7395 35.8705 94.7395L4.60651 94.7395C4.20939 94.7515 3.83719 94.5466 3.63508 94.2045C3.43297 93.8625 3.43297 93.4376 3.63508 93.0955C3.83719 92.7535 4.20939 92.5485 4.60651 92.5605L6.09551 92.5605L6.09551 78.0325C6.09661 76.9781 6.9511 76.1236 8.00551 76.1225L32.4715 76.1225C33.5261 76.1236 34.3809 76.9779 34.3825 78.0325L34.3825 92.5605L35.8705 92.5605C36.4721 92.5605 36.96 93.0479 36.9605 93.6495ZM96.5165 93.6495C96.5165 94.2515 96.0285 94.7395 95.4265 94.7395L64.1625 94.7395C63.7654 94.7515 63.3932 94.5466 63.1911 94.2045C62.989 93.8625 62.989 93.4376 63.1911 93.0955C63.3932 92.7535 63.7654 92.5485 64.1625 92.5605L65.6505 92.5605L65.6505 78.0325C65.6522 76.9779 66.5069 76.1236 67.5615 76.1225L92.0275 76.1225C93.0819 76.1236 93.9364 76.9781 93.9375 78.0325L93.9375 92.5605L95.4265 92.5605C96.0281 92.5605 96.516 93.0479 96.5165 93.6495Z" fill="#f47f39" fill-rule="nonzero" opacity="1" stroke="none"/>
</g>
</svg>
