<?xml version="1.0" encoding="UTF-8" standalone="no"?>
<!DOCTYPE svg PUBLIC "-//W3C//DTD SVG 1.1//EN" "http://www.w3.org/Graphics/SVG/1.1/DTD/svg11.dtd">
<!-- Created with Vectornator (http://vectornator.io/) -->
<svg height="100%" stroke-miterlimit="10" style="fill-rule:nonzero;clip-rule:evenodd;stroke-linecap:round;stroke-linejoin:round;" version="1.1" viewBox="0 0 100 100" width="100%" xml:space="preserve" xmlns="http://www.w3.org/2000/svg" xmlns:xlink="http://www.w3.org/1999/xlink">
<defs/>
<g id="Untitled">
<path d="M34.442 39.2516C34.9967 39.7659 35.8962 39.7659 36.4509 39.2516C37.0057 38.7372 37.0057 37.9032 36.4509 37.3888L23.9072 25.7579C23.3438 25.34 22.5319 25.3803 22.0199 25.8517C21.5079 26.3231 21.4586 27.0756 21.9054 27.601L34.442 39.2516Z" fill="#f47f39" fill-rule="nonzero" opacity="1" stroke="none"/>
<path d="M61.0059 33.4921C61.79 33.4921 62.4257 32.9027 62.4257 32.1756L62.4257 15.9372C62.4257 15.2102 61.79 14.6208 61.0059 14.6208C60.2218 14.6208 59.5862 15.2102 59.5862 15.9372L59.5862 32.1756C59.5862 32.9027 60.2218 33.4921 61.0059 33.4921Z" fill="#f47f39" fill-rule="nonzero" opacity="1" stroke="none"/>
<path d="M41.9171 25.284C42.1131 25.9893 42.8886 26.4136 43.6492 26.2319C44.4098 26.0501 44.8675 25.331 44.6714 24.6258L40.4121 8.82837C40.2161 8.12313 39.4406 7.69876 38.68 7.88053C37.9194 8.06229 37.4617 8.78135 37.6578 9.4866L41.9171 25.284Z" fill="#f47f39" fill-rule="nonzero" opacity="1" stroke="none"/>
<path d="M77.8089 68.2201C76.9351 67.4069 75.8253 66.8466 74.6145 66.6074C75.0655 65.0975 74.7811 63.4802 73.8363 62.1813C72.8915 60.8824 71.3808 60.032 69.702 59.854C69.9328 59.2629 70.0528 58.6396 70.057 58.011C70.065 55.18 67.9117 52.7393 64.9174 52.1857L72.6197 45.0176C74.2644 43.4975 74.8964 41.2727 74.2726 39.1986C73.6489 37.1244 71.8665 35.5239 69.6107 35.0123C67.355 34.5006 64.977 35.1576 63.3911 36.7306C54.9506 45.0834 44.4585 54.5882 40.3198 56.1482C37.9062 57.0697 37.3241 56.3523 35.4571 53.5153C34.1604 51.2927 32.4381 49.3075 30.3743 47.6571C27.9181 45.8075 25.0289 45.7548 22.6365 47.5123C19.9248 49.5199 19.5343 52.9295 21.6924 55.7993C26.1505 61.7234 26.115 64.3958 26.0866 66.9892C25.8736 85.8144 39.9649 91.6397 48.3344 92.1071C48.9733 92.14 49.5909 92.1597 50.2085 92.1597C58.0372 92.2459 65.531 89.2198 70.7953 83.8463L75.445 79.094L75.5231 79.0084L77.8302 76.6454C80.3261 74.3105 80.3166 70.5441 77.8089 68.2201ZM68.6443 82.102L68.5875 82.1613C63.4388 87.3009 56.0495 89.9916 48.5048 89.4742C44.8469 89.1801 41.3249 88.0493 38.2541 86.183C38.4741 86.183 38.7013 86.183 38.9284 86.183L39.5319 86.183C43.0813 85.9724 46.3255 83.978 49.2218 80.259C49.6566 79.6683 49.5031 78.8638 48.8763 78.4471C48.2495 78.0304 47.3785 78.1539 46.9147 78.7253C44.5508 81.7795 42.0165 83.4119 39.3757 83.5765C35.6914 83.8003 32.8589 81.0686 32.8163 81.0291C32.7535 80.9683 32.6846 80.9132 32.6105 80.8646C30.3885 77.6129 28.8623 73.1502 28.9332 66.9826C28.9758 63.5006 28.6351 60.3543 24.0279 54.2459C22.9631 52.8242 22.672 50.8166 24.4113 49.5265C25.7742 48.526 27.1443 48.5654 28.5925 49.6515C30.3994 51.1124 31.9051 52.8654 33.0364 54.8252C33.6911 55.9744 34.5154 57.0333 35.4855 57.9715C35.512 58.0079 35.5404 58.043 35.5707 58.0768C35.6914 58.1953 38.4102 60.9533 35.6417 64.9618C35.254 65.5726 35.4573 66.3583 36.1016 66.7394C36.7459 67.1206 37.6001 66.9604 38.034 66.377C39.6205 64.2681 40.1001 61.6094 39.3402 59.1366C40.0434 59.0473 40.7308 58.8725 41.3847 58.6166C46.9715 56.4905 60.0689 43.8855 65.4498 38.5604C66.1103 37.8999 67.034 37.5192 68.0054 37.5073C68.9778 37.4932 69.9151 37.8446 70.6036 38.4814C71.2777 39.105 71.6565 39.9517 71.6565 40.8346C71.6565 41.7175 71.2777 42.5641 70.6036 43.1877L56.1503 56.5629C54.9642 57.6574 54.2974 59.145 54.2974 60.6965C54.2974 62.2481 54.9642 63.7357 56.1503 64.8302L56.2284 64.9026C57.2061 65.8116 58.4824 66.3929 59.8559 66.5548C59.3526 68.4863 59.9652 70.5217 61.4745 71.9325L61.5312 71.9785L61.588 72.0312C62.7397 73.0894 64.2969 73.6812 65.9183 73.6768C65.7219 75.3806 66.3693 77.0752 67.6789 78.2843L67.7853 78.3962C68.6066 79.156 69.6426 79.6853 70.774 79.9233L68.6443 82.102Z" fill="#f47f39" fill-rule="nonzero" opacity="1" stroke="none"/>
<path d="M45.644 37.1716L45.1045 40.0678L47.9085 38.6986L50.7126 40.0678L50.1731 37.1716L52.4447 35.1179L49.307 34.6966L47.9085 32.0637L46.51 34.6966L43.3723 35.1179L45.644 37.1716Z" fill="#f47f39" fill-rule="nonzero" opacity="1" stroke="none"/>
<path d="M51.0746 18.8663L52.033 20.8673L53.1688 18.9387L55.5185 18.7149L53.8929 17.122L54.3898 14.9762L52.253 15.9175L50.2014 14.8182L50.5067 16.997L48.7462 18.4648L51.0746 18.8663Z" fill="#f47f39" fill-rule="nonzero" opacity="1" stroke="none"/>
<path d="M30.7293 22.7564L32.3123 21.124L34.662 21.4136L33.4765 19.5114L34.4988 17.5367L32.1845 17.9843L30.4737 16.477L30.2181 18.6557L28.1382 19.7023L30.2962 20.5974L30.7293 22.7564Z" fill="#f47f39" fill-rule="nonzero" opacity="1" stroke="none"/>
</g>
</svg>
